<svg width="22" height="22" viewBox="0 0 22 22" fill="none" xmlns="http://www.w3.org/2000/svg">
<path d="M17.0312 17.1694C16.3513 16.9873 15.9479 16.2885 16.1301 15.6087L18.7686 5.76144L8.92137 3.12287C8.24155 2.94072 7.83812 2.24195 8.02028 1.56214C8.20243 0.88233 8.90119 0.478899 9.58101 0.661054L20.6592 3.62944C21.339 3.8116 21.7424 4.51036 21.5603 5.19017L18.5919 16.2683C18.4097 16.9482 17.711 17.3516 17.0312 17.1694ZM9.22751 21.6749C8.54769 21.4927 8.14426 20.794 8.32642 20.1141L10.965 10.2669L1.11772 7.62831C0.437908 7.44615 0.0344763 6.74739 0.216631 6.06758C0.398786 5.38777 1.09755 4.98434 1.77736 5.16649L12.8555 8.13488C13.5353 8.31703 13.9388 9.0158 13.7566 9.69561L10.7882 20.7738C10.6061 21.4536 9.90732 21.857 9.22751 21.6749Z" fill="#CBC6D7"/>
</svg>
