<svg width="18" height="18" viewBox="0 0 18 18" fill="none" xmlns="http://www.w3.org/2000/svg">
<path fill-rule="evenodd" clip-rule="evenodd" d="M14.3225 8.49563H10.097V4.27016C10.097 3.88072 9.78149 3.56592 9.39275 3.56592C9.00401 3.56592 8.6885 3.88072 8.6885 4.27016V8.49563H4.46303C4.07429 8.49563 3.75879 8.81043 3.75879 9.19988C3.75879 9.58932 4.07429 9.90412 4.46303 9.90412H8.6885V14.1296C8.6885 14.519 9.00401 14.8338 9.39275 14.8338C9.78149 14.8338 10.097 14.519 10.097 14.1296V9.90412H14.3225C14.7112 9.90412 15.0267 9.58932 15.0267 9.19988C15.0267 8.81043 14.7112 8.49563 14.3225 8.49563Z" fill="white"/>
</svg>
