<svg width="122" height="122" viewBox="0 0 122 122" fill="none" xmlns="http://www.w3.org/2000/svg">
<path d="M60.3855 120.771C93.1832 120.771 119.771 94.1832 119.771 61.3855C119.771 28.5878 93.1832 2 60.3855 2C27.5878 2 1 28.5878 1 61.3855C1 94.1832 27.5878 120.771 60.3855 120.771Z" fill="#F5F5F9" stroke="#696CFF" stroke-width="2.98795"/>
<path d="M77.0617 80.1397V75.9841C77.0617 73.7799 76.186 71.6659 74.6274 70.1073C73.0687 68.5486 70.9548 67.673 68.7505 67.673H52.1282C49.9239 67.673 47.81 68.5486 46.2513 70.1073C44.6927 71.6659 43.817 73.7799 43.817 75.9841V80.1397" stroke="#696CFF" stroke-width="4.15558" stroke-linecap="round" stroke-linejoin="round"/>
<path d="M60.4392 59.3617C65.0294 59.3617 68.7504 55.6407 68.7504 51.0506C68.7504 46.4604 65.0294 42.7394 60.4392 42.7394C55.8491 42.7394 52.1281 46.4604 52.1281 51.0506C52.1281 55.6407 55.8491 59.3617 60.4392 59.3617Z" stroke="#696CFF" stroke-width="4.15558" stroke-linecap="round" stroke-linejoin="round"/>
</svg>
