<svg width="122" height="122" viewBox="0 0 122 122" fill="none" xmlns="http://www.w3.org/2000/svg">
<circle cx="60.8795" cy="60.8795" r="59.3855" fill="#F5F5F9" stroke="#696CFF" stroke-width="2.98795"/>
<path d="M61.511 70.5117V65.6343" stroke="#696CFF" stroke-width="2.98795" stroke-linecap="round" stroke-linejoin="round"/>
<path fill-rule="evenodd" clip-rule="evenodd" d="M73.4204 48.6978C76.6694 48.6978 79.284 51.3316 79.284 54.5806V61.1941C74.5547 63.9625 68.3065 65.6351 61.5008 65.6351C54.6951 65.6351 48.4662 63.9625 43.7368 61.1941V54.5614C43.7368 51.3124 46.3707 48.6978 49.6197 48.6978H73.4204Z" stroke="#696CFF" stroke-width="2.98795" stroke-linecap="round" stroke-linejoin="round"/>
<path d="M68.2393 48.6892V47.9856C68.2393 45.6401 66.336 43.7368 63.9906 43.7368H59.0305C56.685 43.7368 54.7817 45.6401 54.7817 47.9856V48.6892" stroke="#696CFF" stroke-width="2.98795" stroke-linecap="round" stroke-linejoin="round"/>
<path d="M43.7837 68.2166L44.147 73.0401C44.3931 76.2911 47.1019 78.8038 50.3606 78.8038H72.6598C75.9185 78.8038 78.6273 76.2911 78.8734 73.0401L79.2367 68.2166" stroke="#696CFF" stroke-width="2.98795" stroke-linecap="round" stroke-linejoin="round"/>
</svg>
