<svg width="251" height="41" viewBox="0 0 251 41" fill="none" xmlns="http://www.w3.org/2000/svg">
<path d="M43.0498 29V9.25748H45.641L52.7977 24.1055L59.9132 9.25748H62.5318V28.9863H59.8172V15.4819L53.442 29H52.1396L45.7507 15.4819V29H43.0498ZM72.436 29.4113C70.9644 29.4113 69.6711 29.0914 68.556 28.4516C67.4501 27.8027 66.5864 26.9024 65.9648 25.7507C65.3524 24.5899 65.0463 23.2463 65.0463 21.7199C65.0463 20.1022 65.3479 18.6992 65.9511 17.5109C66.5635 16.3227 67.4135 15.4042 68.5012 14.7552C69.5889 14.1063 70.8548 13.7818 72.2989 13.7818C73.807 13.7818 75.0912 14.1337 76.1514 14.8375C77.2117 15.5321 78.0023 16.5238 78.5233 17.8126C79.0534 19.1013 79.2636 20.6323 79.1539 22.4054H76.2885V21.3635C76.2702 19.6452 75.9412 18.3747 75.3014 17.5521C74.6707 16.7295 73.7065 16.3182 72.4086 16.3182C70.9736 16.3182 69.8951 16.7706 69.173 17.6755C68.4509 18.5803 68.0899 19.8874 68.0899 21.5966C68.0899 23.2235 68.4509 24.4848 69.173 25.3805C69.8951 26.2671 70.937 26.7104 72.2989 26.7104C73.1946 26.7104 73.967 26.5093 74.6159 26.1072C75.274 25.6959 75.7858 25.1109 76.1514 24.3523L78.962 25.2434C78.3862 26.5687 77.5133 27.597 76.3434 28.3282C75.1734 29.0503 73.871 29.4113 72.436 29.4113ZM67.1576 22.4054V20.1707H77.7281V22.4054H67.1576ZM91.7164 29V21.7199C91.7164 21.1441 91.6661 20.5546 91.5656 19.9513C91.4742 19.339 91.2914 18.7723 91.0172 18.2513C90.7521 17.7303 90.3728 17.3099 89.8792 16.99C89.3948 16.6701 88.7596 16.5101 87.9735 16.5101C87.4617 16.5101 86.9772 16.5969 86.5202 16.7706C86.0632 16.9351 85.6611 17.2048 85.3138 17.5795C84.9756 17.9542 84.7059 18.4478 84.5049 19.0602C84.3129 19.6726 84.217 20.4175 84.217 21.2949L82.4346 20.6231C82.4346 19.2795 82.686 18.0959 83.1887 17.0722C83.6914 16.0394 84.4135 15.2351 85.3549 14.6593C86.2963 14.0834 87.4343 13.7955 88.7687 13.7955C89.7924 13.7955 90.6516 13.96 91.3462 14.2891C92.0408 14.6181 92.603 15.0523 93.0325 15.5915C93.4713 16.1217 93.8049 16.7021 94.0334 17.3327C94.2619 17.9634 94.4173 18.5803 94.4995 19.1836C94.5818 19.7868 94.6229 20.3169 94.6229 20.7739V29H91.7164ZM81.3104 29V14.1931H83.8742V18.4707H84.217V29H81.3104ZM106.163 29C105.23 29.1828 104.316 29.2605 103.421 29.2331C102.525 29.2057 101.725 29.032 101.021 28.7121C100.318 28.3922 99.7875 27.8895 99.431 27.204C99.1111 26.5916 98.9374 25.9701 98.91 25.3394C98.8917 24.6996 98.8826 23.9775 98.8826 23.1732V10.0801H101.762V23.0361C101.762 23.6302 101.766 24.1466 101.775 24.5854C101.794 25.0241 101.89 25.3942 102.063 25.6959C102.392 26.2626 102.913 26.587 103.626 26.6693C104.348 26.7424 105.194 26.7104 106.163 26.5733V29ZM96.0446 16.4964V14.1931H106.163V16.4964H96.0446ZM114.541 29.4113C113.06 29.4113 111.776 29.0777 110.688 28.4105C109.601 27.7432 108.76 26.8247 108.166 25.6547C107.581 24.4757 107.288 23.1184 107.288 21.5828C107.288 20.0382 107.59 18.6809 108.193 17.5109C108.796 16.3319 109.642 15.4179 110.73 14.7689C111.817 14.1108 113.088 13.7818 114.541 13.7818C116.022 13.7818 117.306 14.1154 118.393 14.7826C119.481 15.4499 120.322 16.3684 120.916 17.5384C121.51 18.7083 121.807 20.0565 121.807 21.5828C121.807 23.1275 121.506 24.4894 120.902 25.6684C120.308 26.8384 119.467 27.757 118.38 28.4242C117.292 29.0823 116.012 29.4113 114.541 29.4113ZM114.541 26.7104C115.958 26.7104 117.013 26.2351 117.708 25.2846C118.412 24.3249 118.764 23.091 118.764 21.5828C118.764 20.0382 118.407 18.8043 117.694 17.8811C116.99 16.9488 115.939 16.4827 114.541 16.4827C113.581 16.4827 112.791 16.7021 112.169 17.1408C111.548 17.5704 111.086 18.169 110.784 18.9368C110.483 19.6954 110.332 20.5774 110.332 21.5828C110.332 23.1367 110.688 24.3797 111.401 25.312C112.114 26.2443 113.161 26.7104 114.541 26.7104ZM124.316 29V14.1931H126.866V17.7852L126.51 17.319C126.692 16.8437 126.93 16.4096 127.222 16.0165C127.515 15.6144 127.853 15.2853 128.237 15.0294C128.612 14.7552 129.028 14.545 129.485 14.3988C129.951 14.2434 130.426 14.152 130.911 14.1246C131.395 14.088 131.861 14.1108 132.309 14.1931V16.8803C131.825 16.7523 131.285 16.7158 130.691 16.7706C130.106 16.8254 129.567 17.0128 129.073 17.3327C128.607 17.6343 128.237 17.9999 127.963 18.4295C127.698 18.8591 127.506 19.339 127.387 19.8691C127.268 20.3901 127.209 20.943 127.209 21.528V29H124.316ZM144.323 29V11.9584H137.756V9.25748H153.755V11.9584H147.188V29H144.323ZM159.68 29.4113C158.199 29.4113 156.915 29.0777 155.827 28.4105C154.739 27.7432 153.899 26.8247 153.304 25.6547C152.719 24.4757 152.427 23.1184 152.427 21.5828C152.427 20.0382 152.729 18.6809 153.332 17.5109C153.935 16.3319 154.781 15.4179 155.868 14.7689C156.956 14.1108 158.226 13.7818 159.68 13.7818C161.16 13.7818 162.444 14.1154 163.532 14.7826C164.62 15.4499 165.461 16.3684 166.055 17.5384C166.649 18.7083 166.946 20.0565 166.946 21.5828C166.946 23.1275 166.644 24.4894 166.041 25.6684C165.447 26.8384 164.606 27.757 163.518 28.4242C162.431 29.0823 161.151 29.4113 159.68 29.4113ZM159.68 26.7104C161.096 26.7104 162.152 26.2351 162.847 25.2846C163.55 24.3249 163.902 23.091 163.902 21.5828C163.902 20.0382 163.546 18.8043 162.833 17.8811C162.129 16.9488 161.078 16.4827 159.68 16.4827C158.72 16.4827 157.929 16.7021 157.308 17.1408C156.686 17.5704 156.225 18.169 155.923 18.9368C155.621 19.6954 155.471 20.5774 155.471 21.5828C155.471 23.1367 155.827 24.3797 156.54 25.312C157.253 26.2443 158.299 26.7104 159.68 26.7104ZM169.441 29L169.455 9.25748H172.361V21.3224L178.174 14.1931H181.821L175.679 21.5966L182.452 29H178.558L172.361 21.8708V29H169.441ZM189.629 29.4113C188.158 29.4113 186.864 29.0914 185.749 28.4516C184.643 27.8027 183.78 26.9024 183.158 25.7507C182.546 24.5899 182.24 23.2463 182.24 21.7199C182.24 20.1022 182.541 18.6992 183.144 17.5109C183.757 16.3227 184.607 15.4042 185.695 14.7552C186.782 14.1063 188.048 13.7818 189.492 13.7818C191 13.7818 192.285 14.1337 193.345 14.8375C194.405 15.5321 195.196 16.5238 195.717 17.8126C196.247 19.1013 196.457 20.6323 196.347 22.4054H193.482V21.3635C193.464 19.6452 193.135 18.3747 192.495 17.5521C191.864 16.7295 190.9 16.3182 189.602 16.3182C188.167 16.3182 187.088 16.7706 186.366 17.6755C185.644 18.5803 185.283 19.8874 185.283 21.5966C185.283 23.2235 185.644 24.4848 186.366 25.3805C187.088 26.2671 188.13 26.7104 189.492 26.7104C190.388 26.7104 191.16 26.5093 191.809 26.1072C192.467 25.6959 192.979 25.1109 193.345 24.3523L196.155 25.2434C195.58 26.5687 194.707 27.597 193.537 28.3282C192.367 29.0503 191.064 29.4113 189.629 29.4113ZM184.351 22.4054V20.1707H194.921V22.4054H184.351ZM208.91 29V21.7199C208.91 21.1441 208.859 20.5546 208.759 19.9513C208.668 19.339 208.485 18.7723 208.211 18.2513C207.945 17.7303 207.566 17.3099 207.073 16.99C206.588 16.6701 205.953 16.5101 205.167 16.5101C204.655 16.5101 204.171 16.5969 203.714 16.7706C203.257 16.9351 202.854 17.2048 202.507 17.5795C202.169 17.9542 201.899 18.4478 201.698 19.0602C201.506 19.6726 201.41 20.4175 201.41 21.2949L199.628 20.6231C199.628 19.2795 199.879 18.0959 200.382 17.0722C200.885 16.0394 201.607 15.2351 202.548 14.6593C203.49 14.0834 204.628 13.7955 205.962 13.7955C206.986 13.7955 207.845 13.96 208.54 14.2891C209.234 14.6181 209.796 15.0523 210.226 15.5915C210.665 16.1217 210.998 16.7021 211.227 17.3327C211.455 17.9634 211.611 18.5803 211.693 19.1836C211.775 19.7868 211.816 20.3169 211.816 20.7739V29H208.91ZM198.504 29V14.1931H201.068V18.4707H201.41V29H198.504Z" fill="#696CFF"/>
<path d="M34.1432 13.0566C34.1432 12.6736 33.9356 12.3207 33.6007 12.1347L20.0225 4.59118C19.704 4.41422 19.3167 4.41422 18.9981 4.59118L5.41989 12.1347C5.08509 12.3207 4.87744 12.6736 4.87744 13.0566V28.0742C4.87744 28.4572 5.08509 28.8101 5.41989 28.9961L18.9982 36.5396C19.3167 36.7166 19.704 36.7166 20.0225 36.5396L33.6007 28.9961C33.9356 28.8101 34.1432 28.4572 34.1432 28.0742V13.0566ZM18.9985 8.31392C19.3169 8.13726 19.7038 8.13726 20.0221 8.31392L27.4575 12.4405C28.1813 12.8422 28.1813 13.8832 27.4573 14.2848L24.9352 15.6841C24.5168 15.9163 23.9998 15.8304 23.6285 15.5285C22.5057 14.6155 21.0714 14.0619 19.5103 14.0619C17.9492 14.0619 16.515 14.6155 15.3922 15.5285C15.0209 15.8304 14.5038 15.9163 14.0854 15.6841L11.5633 14.2848C10.8394 13.8832 10.8393 12.8422 11.5632 12.4405L18.9985 8.31392ZM17.8844 30.4152C17.8844 31.2191 17.021 31.7274 16.318 31.3373L8.67204 27.0938C8.33701 26.9078 8.12919 26.5548 8.12919 26.1716V17.9034C8.12919 17.0991 8.99329 16.5909 9.69623 16.9816L12.4834 18.5311C12.9133 18.77 13.1123 19.2746 13.0533 19.7629C13.0217 20.0243 13.0068 20.293 13.0068 20.5654C13.0068 23.3024 14.6983 25.6533 17.1047 26.6053C17.5532 26.7827 17.8844 27.1952 17.8844 27.6775V30.4152ZM16.2586 20.5654C16.2586 18.7769 17.7219 17.3136 19.5103 17.3136C21.2988 17.3136 22.7621 18.7769 22.7621 20.5654C22.7621 22.3539 21.2988 23.8171 19.5103 23.8171C17.7219 23.8171 16.2586 22.3539 16.2586 20.5654ZM22.7026 31.3373C21.9997 31.7274 21.1362 31.2191 21.1362 30.4152V27.6938C21.1362 27.2114 21.4674 26.799 21.9159 26.6216C24.3224 25.6695 26.0138 23.3187 26.0138 20.5817C26.0138 20.3019 25.9981 20.0261 25.9647 19.7562C25.9048 19.2713 26.1039 18.7719 26.5309 18.5346L29.3244 16.9816C30.0273 16.5909 30.8914 17.0991 30.8914 17.9034V26.1716C30.8914 26.5548 30.6836 26.9078 30.3486 27.0938L22.7026 31.3373Z" fill="#696CFF"/>
</svg>
