<svg width="251" height="93" viewBox="0 0 251 93" fill="none" xmlns="http://www.w3.org/2000/svg">
<path d="M55.7325 54L55.74 48.8175C55.74 48.2125 55.5775 47.74 55.2525 47.4C54.9325 47.055 54.515 46.8825 54 46.8825C53.7 46.8825 53.415 46.9525 53.145 47.0925C52.875 47.2275 52.655 47.4425 52.485 47.7375C52.315 48.0275 52.23 48.4 52.23 48.855L51.525 48.57C51.515 47.995 51.6325 47.4925 51.8775 47.0625C52.1275 46.6275 52.4675 46.29 52.8975 46.05C53.3275 45.81 53.8125 45.69 54.3525 45.69C55.1975 45.69 55.8625 45.9475 56.3475 46.4625C56.8325 46.9725 57.075 47.66 57.075 48.525L57.0675 54H55.7325ZM46.0425 54V45.9H47.235V48.0675H47.385V54H46.0425ZM50.895 54L50.9025 48.87C50.9025 48.25 50.7425 47.765 50.4225 47.415C50.1025 47.06 49.6775 46.8825 49.1475 46.8825C48.6225 46.8825 48.1975 47.0625 47.8725 47.4225C47.5475 47.7825 47.385 48.26 47.385 48.855L46.68 48.435C46.68 47.91 46.805 47.44 47.055 47.025C47.305 46.61 47.645 46.285 48.075 46.05C48.505 45.81 48.9925 45.69 49.5375 45.69C50.0825 45.69 50.5575 45.805 50.9625 46.035C51.3675 46.265 51.68 46.595 51.9 47.025C52.12 47.45 52.23 47.9575 52.23 48.5475L52.2225 54H50.895ZM62.4653 54.225C61.6703 54.225 60.9753 54.05 60.3803 53.7C59.7903 53.345 59.3303 52.8525 59.0003 52.2225C58.6703 51.5875 58.5053 50.8475 58.5053 50.0025C58.5053 49.1175 58.6678 48.3525 58.9928 47.7075C59.3178 47.0575 59.7703 46.5575 60.3503 46.2075C60.9353 45.8525 61.6203 45.675 62.4053 45.675C63.2203 45.675 63.9128 45.8625 64.4828 46.2375C65.0578 46.6125 65.4878 47.1475 65.7728 47.8425C66.0628 48.5375 66.1878 49.365 66.1478 50.325H64.7978V49.845C64.7828 48.85 64.5803 48.1075 64.1903 47.6175C63.8003 47.1225 63.2203 46.875 62.4503 46.875C61.6253 46.875 60.9978 47.14 60.5678 47.67C60.1378 48.2 59.9228 48.96 59.9228 49.95C59.9228 50.905 60.1378 51.645 60.5678 52.17C60.9978 52.695 61.6103 52.9575 62.4053 52.9575C62.9403 52.9575 63.4053 52.835 63.8003 52.59C64.1953 52.345 64.5053 51.9925 64.7303 51.5325L66.0128 51.975C65.6978 52.69 65.2228 53.245 64.5878 53.64C63.9578 54.03 63.2503 54.225 62.4653 54.225ZM59.4728 50.325V49.2525H65.4578V50.325H59.4728ZM73.3654 54V49.9425C73.3654 49.5575 73.3304 49.1875 73.2604 48.8325C73.1954 48.4775 73.0779 48.16 72.9079 47.88C72.7429 47.595 72.5179 47.37 72.2329 47.205C71.9529 47.04 71.5979 46.9575 71.1679 46.9575C70.8329 46.9575 70.5279 47.015 70.2529 47.13C69.9829 47.24 69.7504 47.41 69.5554 47.64C69.3604 47.87 69.2079 48.16 69.0979 48.51C68.9929 48.855 68.9404 49.2625 68.9404 49.7325L68.0629 49.4625C68.0629 48.6775 68.2029 48.005 68.4829 47.445C68.7679 46.88 69.1654 46.4475 69.6754 46.1475C70.1904 45.8425 70.7954 45.69 71.4904 45.69C72.0154 45.69 72.4629 45.7725 72.8329 45.9375C73.2029 46.1025 73.5104 46.3225 73.7554 46.5975C74.0004 46.8675 74.1929 47.1725 74.3329 47.5125C74.4729 47.8475 74.5704 48.19 74.6254 48.54C74.6854 48.885 74.7154 49.2125 74.7154 49.5225V54H73.3654ZM67.5904 54V45.9H68.7904V48.0675H68.9404V54H67.5904ZM81.1877 54C80.7077 54.095 80.2327 54.1325 79.7627 54.1125C79.2977 54.0975 78.8827 54.005 78.5177 53.835C78.1527 53.66 77.8752 53.39 77.6852 53.025C77.5252 52.705 77.4377 52.3825 77.4227 52.0575C77.4127 51.7275 77.4077 51.355 77.4077 50.94V43.65H78.7427V50.88C78.7427 51.21 78.7452 51.4925 78.7502 51.7275C78.7602 51.9625 78.8127 52.165 78.9077 52.335C79.0877 52.655 79.3727 52.8425 79.7627 52.8975C80.1577 52.9525 80.6327 52.9375 81.1877 52.8525V54ZM75.7652 47.0025V45.9H81.1877V47.0025H75.7652ZM85.9453 54.225C85.1403 54.225 84.4453 54.0425 83.8603 53.6775C83.2803 53.3125 82.8328 52.8075 82.5178 52.1625C82.2028 51.5175 82.0453 50.7775 82.0453 49.9425C82.0453 49.0925 82.2053 48.3475 82.5253 47.7075C82.8453 47.0675 83.2978 46.57 83.8828 46.215C84.4678 45.855 85.1553 45.675 85.9453 45.675C86.7553 45.675 87.4528 45.8575 88.0378 46.2225C88.6228 46.5825 89.0703 47.085 89.3803 47.73C89.6953 48.37 89.8528 49.1075 89.8528 49.9425C89.8528 50.7875 89.6953 51.5325 89.3803 52.1775C89.0653 52.8175 88.6153 53.32 88.0303 53.685C87.4453 54.045 86.7503 54.225 85.9453 54.225ZM85.9453 52.9575C86.7853 52.9575 87.4103 52.6775 87.8203 52.1175C88.2303 51.5575 88.4353 50.8325 88.4353 49.9425C88.4353 49.0275 88.2278 48.3 87.8128 47.76C87.3978 47.215 86.7753 46.9425 85.9453 46.9425C85.3803 46.9425 84.9153 47.07 84.5503 47.325C84.1853 47.58 83.9128 47.9325 83.7328 48.3825C83.5528 48.8325 83.4628 49.3525 83.4628 49.9425C83.4628 50.8525 83.6728 51.5825 84.0928 52.1325C84.5128 52.6825 85.1303 52.9575 85.9453 52.9575ZM91.5041 54V45.9H92.6966V47.8575L92.5016 47.6025C92.5966 47.3525 92.7191 47.1225 92.8691 46.9125C93.0241 46.7025 93.1966 46.53 93.3866 46.395C93.5966 46.225 93.8341 46.095 94.0991 46.005C94.3641 45.915 94.6341 45.8625 94.9091 45.8475C95.1841 45.8275 95.4416 45.845 95.6816 45.9V47.1525C95.4016 47.0775 95.0941 47.0575 94.7591 47.0925C94.4241 47.1275 94.1141 47.25 93.8291 47.46C93.5691 47.645 93.3666 47.87 93.2216 48.135C93.0816 48.4 92.9841 48.6875 92.9291 48.9975C92.8741 49.3025 92.8466 49.615 92.8466 49.935V54H91.5041ZM101.622 54C101.142 54.095 100.667 54.1325 100.197 54.1125C99.7323 54.0975 99.3173 54.005 98.9523 53.835C98.5873 53.66 98.3098 53.39 98.1198 53.025C97.9598 52.705 97.8723 52.3825 97.8573 52.0575C97.8473 51.7275 97.8423 51.355 97.8423 50.94V43.65H99.1773V50.88C99.1773 51.21 99.1798 51.4925 99.1848 51.7275C99.1948 51.9625 99.2473 52.165 99.3423 52.335C99.5223 52.655 99.8073 52.8425 100.197 52.8975C100.592 52.9525 101.067 52.9375 101.622 52.8525V54ZM96.1998 47.0025V45.9H101.622V47.0025H96.1998ZM106.38 54.225C105.575 54.225 104.88 54.0425 104.295 53.6775C103.715 53.3125 103.267 52.8075 102.952 52.1625C102.637 51.5175 102.48 50.7775 102.48 49.9425C102.48 49.0925 102.64 48.3475 102.96 47.7075C103.28 47.0675 103.732 46.57 104.317 46.215C104.902 45.855 105.59 45.675 106.38 45.675C107.19 45.675 107.887 45.8575 108.472 46.2225C109.057 46.5825 109.505 47.085 109.815 47.73C110.13 48.37 110.287 49.1075 110.287 49.9425C110.287 50.7875 110.13 51.5325 109.815 52.1775C109.5 52.8175 109.05 53.32 108.465 53.685C107.88 54.045 107.185 54.225 106.38 54.225ZM106.38 52.9575C107.22 52.9575 107.845 52.6775 108.255 52.1175C108.665 51.5575 108.87 50.8325 108.87 49.9425C108.87 49.0275 108.662 48.3 108.247 47.76C107.832 47.215 107.21 46.9425 106.38 46.9425C105.815 46.9425 105.35 47.07 104.985 47.325C104.62 47.58 104.347 47.9325 104.167 48.3825C103.987 48.8325 103.897 49.3525 103.897 49.9425C103.897 50.8525 104.107 51.5825 104.527 52.1325C104.947 52.6825 105.565 52.9575 106.38 52.9575ZM111.931 54L111.939 43.2H113.289V49.8L116.686 45.9H118.419L114.841 49.95L118.839 54H116.971L113.289 50.1V54H111.931ZM122.949 54.225C122.154 54.225 121.459 54.05 120.864 53.7C120.274 53.345 119.814 52.8525 119.484 52.2225C119.154 51.5875 118.989 50.8475 118.989 50.0025C118.989 49.1175 119.151 48.3525 119.476 47.7075C119.801 47.0575 120.254 46.5575 120.834 46.2075C121.419 45.8525 122.104 45.675 122.889 45.675C123.704 45.675 124.396 45.8625 124.966 46.2375C125.541 46.6125 125.971 47.1475 126.256 47.8425C126.546 48.5375 126.671 49.365 126.631 50.325H125.281V49.845C125.266 48.85 125.064 48.1075 124.674 47.6175C124.284 47.1225 123.704 46.875 122.934 46.875C122.109 46.875 121.481 47.14 121.051 47.67C120.621 48.2 120.406 48.96 120.406 49.95C120.406 50.905 120.621 51.645 121.051 52.17C121.481 52.695 122.094 52.9575 122.889 52.9575C123.424 52.9575 123.889 52.835 124.284 52.59C124.679 52.345 124.989 51.9925 125.214 51.5325L126.496 51.975C126.181 52.69 125.706 53.245 125.071 53.64C124.441 54.03 123.734 54.225 122.949 54.225ZM119.956 50.325V49.2525H125.941V50.325H119.956ZM133.849 54V49.9425C133.849 49.5575 133.814 49.1875 133.744 48.8325C133.679 48.4775 133.561 48.16 133.391 47.88C133.226 47.595 133.001 47.37 132.716 47.205C132.436 47.04 132.081 46.9575 131.651 46.9575C131.316 46.9575 131.011 47.015 130.736 47.13C130.466 47.24 130.234 47.41 130.039 47.64C129.844 47.87 129.691 48.16 129.581 48.51C129.476 48.855 129.424 49.2625 129.424 49.7325L128.546 49.4625C128.546 48.6775 128.686 48.005 128.966 47.445C129.251 46.88 129.649 46.4475 130.159 46.1475C130.674 45.8425 131.279 45.69 131.974 45.69C132.499 45.69 132.946 45.7725 133.316 45.9375C133.686 46.1025 133.994 46.3225 134.239 46.5975C134.484 46.8675 134.676 47.1725 134.816 47.5125C134.956 47.8475 135.054 48.19 135.109 48.54C135.169 48.885 135.199 49.2125 135.199 49.5225V54H133.849ZM128.074 54V45.9H129.274V48.0675H129.424V54H128.074ZM137.389 54V52.53H138.859V54H137.389ZM144.604 54.225C143.784 54.225 143.087 54.0425 142.512 53.6775C141.942 53.3075 141.507 52.8 141.207 52.155C140.907 51.51 140.752 50.775 140.742 49.95C140.752 49.105 140.909 48.3625 141.214 47.7225C141.524 47.0775 141.967 46.575 142.542 46.215C143.117 45.855 143.809 45.675 144.619 45.675C145.474 45.675 146.209 45.885 146.824 46.305C147.444 46.725 147.859 47.3 148.069 48.03L146.749 48.4275C146.579 47.9575 146.302 47.5925 145.917 47.3325C145.537 47.0725 145.099 46.9425 144.604 46.9425C144.049 46.9425 143.592 47.0725 143.232 47.3325C142.872 47.5875 142.604 47.9425 142.429 48.3975C142.254 48.8475 142.164 49.365 142.159 49.95C142.169 50.85 142.377 51.5775 142.782 52.1325C143.192 52.6825 143.799 52.9575 144.604 52.9575C145.134 52.9575 145.574 52.8375 145.924 52.5975C146.274 52.3525 146.539 52 146.719 51.54L148.069 51.8925C147.789 52.6475 147.352 53.225 146.757 53.625C146.162 54.025 145.444 54.225 144.604 54.225ZM152.83 54.225C152.025 54.225 151.33 54.0425 150.745 53.6775C150.165 53.3125 149.718 52.8075 149.403 52.1625C149.088 51.5175 148.93 50.7775 148.93 49.9425C148.93 49.0925 149.09 48.3475 149.41 47.7075C149.73 47.0675 150.183 46.57 150.768 46.215C151.353 45.855 152.04 45.675 152.83 45.675C153.64 45.675 154.338 45.8575 154.923 46.2225C155.508 46.5825 155.955 47.085 156.265 47.73C156.58 48.37 156.738 49.1075 156.738 49.9425C156.738 50.7875 156.58 51.5325 156.265 52.1775C155.95 52.8175 155.5 53.32 154.915 53.685C154.33 54.045 153.635 54.225 152.83 54.225ZM152.83 52.9575C153.67 52.9575 154.295 52.6775 154.705 52.1175C155.115 51.5575 155.32 50.8325 155.32 49.9425C155.32 49.0275 155.113 48.3 154.698 47.76C154.283 47.215 153.66 46.9425 152.83 46.9425C152.265 46.9425 151.8 47.07 151.435 47.325C151.07 47.58 150.798 47.9325 150.618 48.3825C150.438 48.8325 150.348 49.3525 150.348 49.9425C150.348 50.8525 150.558 51.5825 150.978 52.1325C151.398 52.6825 152.015 52.9575 152.83 52.9575ZM168.071 54L168.079 48.8175C168.079 48.2125 167.916 47.74 167.591 47.4C167.271 47.055 166.854 46.8825 166.339 46.8825C166.039 46.8825 165.754 46.9525 165.484 47.0925C165.214 47.2275 164.994 47.4425 164.824 47.7375C164.654 48.0275 164.569 48.4 164.569 48.855L163.864 48.57C163.854 47.995 163.971 47.4925 164.216 47.0625C164.466 46.6275 164.806 46.29 165.236 46.05C165.666 45.81 166.151 45.69 166.691 45.69C167.536 45.69 168.201 45.9475 168.686 46.4625C169.171 46.9725 169.414 47.66 169.414 48.525L169.406 54H168.071ZM158.381 54V45.9H159.574V48.0675H159.724V54H158.381ZM163.234 54L163.241 48.87C163.241 48.25 163.081 47.765 162.761 47.415C162.441 47.06 162.016 46.8825 161.486 46.8825C160.961 46.8825 160.536 47.0625 160.211 47.4225C159.886 47.7825 159.724 48.26 159.724 48.855L159.019 48.435C159.019 47.91 159.144 47.44 159.394 47.025C159.644 46.61 159.984 46.285 160.414 46.05C160.844 45.81 161.331 45.69 161.876 45.69C162.421 45.69 162.896 45.805 163.301 46.035C163.706 46.265 164.019 46.595 164.239 47.025C164.459 47.45 164.569 47.9575 164.569 48.5475L164.561 54H163.234Z" fill="white"/>
<path d="M43.0497 29V9.25748H45.6409L52.7975 24.1055L59.9131 9.25748H62.5317V28.9863H59.8171V15.4819L53.4419 29H52.1394L45.7505 15.4819V29H43.0497ZM72.4359 29.4113C70.9643 29.4113 69.671 29.0914 68.5559 28.4516C67.45 27.8027 66.5862 26.9024 65.9647 25.7507C65.3523 24.5899 65.0461 23.2463 65.0461 21.7199C65.0461 20.1022 65.3478 18.6992 65.951 17.5109C66.5634 16.3227 67.4134 15.4042 68.5011 14.7552C69.5887 14.1063 70.8546 13.7818 72.2988 13.7818C73.8069 13.7818 75.0911 14.1337 76.1513 14.8375C77.2116 15.5321 78.0022 16.5238 78.5231 17.8126C79.0533 19.1013 79.2635 20.6323 79.1538 22.4054H76.2884V21.3635C76.2701 19.6452 75.9411 18.3747 75.3013 17.5521C74.6706 16.7295 73.7063 16.3182 72.4085 16.3182C70.9735 16.3182 69.8949 16.7706 69.1729 17.6755C68.4508 18.5803 68.0898 19.8874 68.0898 21.5966C68.0898 23.2235 68.4508 24.4848 69.1729 25.3805C69.8949 26.2671 70.9369 26.7104 72.2988 26.7104C73.1945 26.7104 73.9668 26.5093 74.6158 26.1072C75.2739 25.6959 75.7857 25.1109 76.1513 24.3523L78.9619 25.2434C78.386 26.5687 77.5132 27.597 76.3432 28.3282C75.1733 29.0503 73.8709 29.4113 72.4359 29.4113ZM67.1575 22.4054V20.1707H77.728V22.4054H67.1575ZM91.7162 29V21.7199C91.7162 21.1441 91.666 20.5546 91.5654 19.9513C91.474 19.339 91.2912 18.7723 91.017 18.2513C90.752 17.7303 90.3727 17.3099 89.8791 16.99C89.3947 16.6701 88.7594 16.5101 87.9734 16.5101C87.4616 16.5101 86.9771 16.5969 86.5201 16.7706C86.0631 16.9351 85.661 17.2048 85.3136 17.5795C84.9755 17.9542 84.7058 18.4478 84.5047 19.0602C84.3128 19.6726 84.2168 20.4175 84.2168 21.2949L82.4345 20.6231C82.4345 19.2795 82.6859 18.0959 83.1886 17.0722C83.6913 16.0394 84.4133 15.2351 85.3548 14.6593C86.2962 14.0834 87.4341 13.7955 88.7686 13.7955C89.7923 13.7955 90.6514 13.96 91.3461 14.2891C92.0407 14.6181 92.6028 15.0523 93.0324 15.5915C93.4711 16.1217 93.8048 16.7021 94.0333 17.3327C94.2618 17.9634 94.4171 18.5803 94.4994 19.1836C94.5817 19.7868 94.6228 20.3169 94.6228 20.7739V29H91.7162ZM81.3103 29V14.1931H83.8741V18.4707H84.2168V29H81.3103ZM106.163 29C105.23 29.1828 104.316 29.2605 103.421 29.2331C102.525 29.2057 101.725 29.032 101.021 28.7121C100.317 28.3922 99.7873 27.8895 99.4309 27.204C99.111 26.5916 98.9373 25.9701 98.9099 25.3394C98.8916 24.6996 98.8825 23.9775 98.8825 23.1732V10.0801H101.762V23.0361C101.762 23.6302 101.766 24.1466 101.775 24.5854C101.794 25.0241 101.89 25.3942 102.063 25.6959C102.392 26.2626 102.913 26.587 103.626 26.6693C104.348 26.7424 105.194 26.7104 106.163 26.5733V29ZM96.0445 16.4964V14.1931H106.163V16.4964H96.0445ZM114.541 29.4113C113.06 29.4113 111.776 29.0777 110.688 28.4105C109.601 27.7432 108.76 26.8247 108.166 25.6547C107.581 24.4757 107.288 23.1184 107.288 21.5828C107.288 20.0382 107.59 18.6809 108.193 17.5109C108.796 16.3319 109.642 15.4179 110.729 14.7689C111.817 14.1108 113.088 13.7818 114.541 13.7818C116.022 13.7818 117.306 14.1154 118.393 14.7826C119.481 15.4499 120.322 16.3684 120.916 17.5384C121.51 18.7083 121.807 20.0565 121.807 21.5828C121.807 23.1275 121.506 24.4894 120.902 25.6684C120.308 26.8384 119.467 27.757 118.38 28.4242C117.292 29.0823 116.012 29.4113 114.541 29.4113ZM114.541 26.7104C115.958 26.7104 117.013 26.2351 117.708 25.2846C118.412 24.3249 118.764 23.091 118.764 21.5828C118.764 20.0382 118.407 18.8043 117.694 17.8811C116.99 16.9488 115.939 16.4827 114.541 16.4827C113.581 16.4827 112.791 16.7021 112.169 17.1408C111.547 17.5704 111.086 18.169 110.784 18.9368C110.483 19.6954 110.332 20.5774 110.332 21.5828C110.332 23.1367 110.688 24.3797 111.401 25.312C112.114 26.2443 113.161 26.7104 114.541 26.7104ZM124.316 29V14.1931H126.866V17.7852L126.509 17.319C126.692 16.8437 126.93 16.4096 127.222 16.0165C127.515 15.6144 127.853 15.2853 128.237 15.0294C128.612 14.7552 129.028 14.545 129.485 14.3988C129.951 14.2434 130.426 14.152 130.91 14.1246C131.395 14.088 131.861 14.1108 132.309 14.1931V16.8803C131.824 16.7523 131.285 16.7158 130.691 16.7706C130.106 16.8254 129.567 17.0128 129.073 17.3327C128.607 17.6343 128.237 17.9999 127.963 18.4295C127.698 18.8591 127.506 19.339 127.387 19.8691C127.268 20.3901 127.209 20.943 127.209 21.528V29H124.316ZM144.323 29V11.9584H137.756V9.25748H153.755V11.9584H147.188V29H144.323ZM159.679 29.4113C158.199 29.4113 156.915 29.0777 155.827 28.4105C154.739 27.7432 153.898 26.8247 153.304 25.6547C152.719 24.4757 152.427 23.1184 152.427 21.5828C152.427 20.0382 152.728 18.6809 153.332 17.5109C153.935 16.3319 154.78 15.4179 155.868 14.7689C156.956 14.1108 158.226 13.7818 159.679 13.7818C161.16 13.7818 162.444 14.1154 163.532 14.7826C164.62 15.4499 165.461 16.3684 166.055 17.5384C166.649 18.7083 166.946 20.0565 166.946 21.5828C166.946 23.1275 166.644 24.4894 166.041 25.6684C165.447 26.8384 164.606 27.757 163.518 28.4242C162.431 29.0823 161.151 29.4113 159.679 29.4113ZM159.679 26.7104C161.096 26.7104 162.152 26.2351 162.847 25.2846C163.55 24.3249 163.902 23.091 163.902 21.5828C163.902 20.0382 163.546 18.8043 162.833 17.8811C162.129 16.9488 161.078 16.4827 159.679 16.4827C158.72 16.4827 157.929 16.7021 157.308 17.1408C156.686 17.5704 156.225 18.169 155.923 18.9368C155.621 19.6954 155.47 20.5774 155.47 21.5828C155.47 23.1367 155.827 24.3797 156.54 25.312C157.253 26.2443 158.299 26.7104 159.679 26.7104ZM169.441 29L169.454 9.25748H172.361V21.3224L178.174 14.1931H181.821L175.679 21.5966L182.452 29H178.558L172.361 21.8708V29H169.441ZM189.629 29.4113C188.158 29.4113 186.864 29.0914 185.749 28.4516C184.643 27.8027 183.78 26.9024 183.158 25.7507C182.546 24.5899 182.24 23.2463 182.24 21.7199C182.24 20.1022 182.541 18.6992 183.144 17.5109C183.757 16.3227 184.607 15.4042 185.694 14.7552C186.782 14.1063 188.048 13.7818 189.492 13.7818C191 13.7818 192.284 14.1337 193.345 14.8375C194.405 15.5321 195.196 16.5238 195.717 17.8126C196.247 19.1013 196.457 20.6323 196.347 22.4054H193.482V21.3635C193.463 19.6452 193.134 18.3747 192.495 17.5521C191.864 16.7295 190.9 16.3182 189.602 16.3182C188.167 16.3182 187.088 16.7706 186.366 17.6755C185.644 18.5803 185.283 19.8874 185.283 21.5966C185.283 23.2235 185.644 24.4848 186.366 25.3805C187.088 26.2671 188.13 26.7104 189.492 26.7104C190.388 26.7104 191.16 26.5093 191.809 26.1072C192.467 25.6959 192.979 25.1109 193.345 24.3523L196.155 25.2434C195.579 26.5687 194.707 27.597 193.537 28.3282C192.367 29.0503 191.064 29.4113 189.629 29.4113ZM184.351 22.4054V20.1707H194.921V22.4054H184.351ZM208.91 29V21.7199C208.91 21.1441 208.859 20.5546 208.759 19.9513C208.667 19.339 208.485 18.7723 208.21 18.2513C207.945 17.7303 207.566 17.3099 207.072 16.99C206.588 16.6701 205.953 16.5101 205.167 16.5101C204.655 16.5101 204.17 16.5969 203.713 16.7706C203.256 16.9351 202.854 17.2048 202.507 17.5795C202.169 17.9542 201.899 18.4478 201.698 19.0602C201.506 19.6726 201.41 20.4175 201.41 21.2949L199.628 20.6231C199.628 19.2795 199.879 18.0959 200.382 17.0722C200.885 16.0394 201.607 15.2351 202.548 14.6593C203.49 14.0834 204.628 13.7955 205.962 13.7955C206.986 13.7955 207.845 13.96 208.539 14.2891C209.234 14.6181 209.796 15.0523 210.226 15.5915C210.665 16.1217 210.998 16.7021 211.227 17.3327C211.455 17.9634 211.611 18.5803 211.693 19.1836C211.775 19.7868 211.816 20.3169 211.816 20.7739V29H208.91ZM198.504 29V14.1931H201.067V18.4707H201.41V29H198.504Z" fill="white"/>
<path d="M34.1434 13.0563C34.1434 12.6733 33.9357 12.3204 33.6009 12.1344L20.0227 4.59093C19.7042 4.41398 19.3169 4.41398 18.9983 4.59094L5.42008 12.1344C5.08527 12.3204 4.87762 12.6733 4.87762 13.0563V28.074C4.87762 28.457 5.08527 28.8099 5.42008 28.9959L18.9983 36.5394C19.3169 36.7163 19.7042 36.7163 20.0227 36.5394L33.6009 28.9959C33.9357 28.8099 34.1434 28.457 34.1434 28.074V13.0563ZM18.9987 8.31368C19.317 8.13702 19.704 8.13702 20.0223 8.31368L27.4577 12.4403C28.1815 12.842 28.1814 13.8829 27.4575 14.2846L24.9354 15.6839C24.517 15.916 23.9999 15.8301 23.6287 15.5282C22.5059 14.6153 21.0716 14.0616 19.5105 14.0616C17.9494 14.0616 16.5152 14.6153 15.3924 15.5282C15.0211 15.8301 14.504 15.916 14.0856 15.6839L11.5635 14.2846C10.8396 13.8829 10.8395 12.842 11.5634 12.4403L18.9987 8.31368ZM17.8846 30.4149C17.8846 31.2189 17.0212 31.7272 16.3182 31.3371L8.67222 27.0935C8.33719 26.9076 8.12938 26.5546 8.12938 26.1714V17.9032C8.12938 17.0989 8.99347 16.5906 9.69642 16.9814L12.4836 18.5308C12.9135 18.7698 13.1125 19.2744 13.0535 19.7627C13.0219 20.0241 13.007 20.2927 13.007 20.5651C13.007 23.3022 14.6984 25.653 17.1049 26.605C17.5534 26.7825 17.8846 27.1949 17.8846 27.6773V30.4149ZM16.2588 20.5651C16.2588 18.7767 17.722 17.3134 19.5105 17.3134C21.299 17.3134 22.7623 18.7767 22.7623 20.5651C22.7623 22.3536 21.299 23.8169 19.5105 23.8169C17.722 23.8169 16.2588 22.3536 16.2588 20.5651ZM22.7028 31.3371C21.9998 31.7272 21.1364 31.2189 21.1364 30.4149V27.6935C21.1364 27.2112 21.4676 26.7987 21.9161 26.6213C24.3226 25.6693 26.014 23.3185 26.014 20.5814C26.014 20.3017 25.9983 20.0259 25.9649 19.756C25.905 19.2711 26.1041 18.7717 26.5311 18.5343L29.3246 16.9814C30.0275 16.5906 30.8916 17.0989 30.8916 17.9032V26.1714C30.8916 26.5546 30.6838 26.9076 30.3488 27.0935L22.7028 31.3371Z" fill="white"/>
</svg>
