<svg width="169" height="21" viewBox="0 0 169 21" fill="none" xmlns="http://www.w3.org/2000/svg">
<path d="M0.049783 20.4619V0.719391H2.64099L9.79765 15.5674L16.9132 0.719391H19.5318V20.4482H16.8172V6.94377L10.442 20.4619H9.13957L2.75067 6.94377V20.4619H0.049783ZM29.436 20.8732C27.9644 20.8732 26.6711 20.5533 25.556 19.9135C24.4501 19.2646 23.5864 18.3643 22.9648 17.2126C22.3524 16.0518 22.0463 14.7082 22.0463 13.1819C22.0463 11.5641 22.3479 10.1611 22.9511 8.97286C23.5635 7.78465 24.4135 6.86608 25.5012 6.21714C26.5889 5.56819 27.8548 5.24372 29.2989 5.24372C30.807 5.24372 32.0912 5.59561 33.1514 6.2994C34.2117 6.99404 35.0023 7.98574 35.5233 9.27448C36.0534 10.5632 36.2636 12.0942 36.1539 13.8674H33.2885V12.8254C33.2702 11.1071 32.9412 9.8366 32.3014 9.01399C31.6707 8.19139 30.7065 7.78008 29.4086 7.78008C27.9736 7.78008 26.8951 8.23252 26.173 9.13738C25.4509 10.0422 25.0899 11.3493 25.0899 13.0585C25.0899 14.6854 25.4509 15.9467 26.173 16.8425C26.8951 17.729 27.937 18.1723 29.2989 18.1723C30.1946 18.1723 30.967 17.9712 31.6159 17.5691C32.274 17.1578 32.7858 16.5728 33.1514 15.8142L35.962 16.7054C35.3862 18.0307 34.5133 19.0589 33.3434 19.7901C32.1734 20.5122 30.871 20.8732 29.436 20.8732ZM24.1576 13.8674V11.6326H34.7281V13.8674H24.1576ZM48.7164 20.4619V13.1819C48.7164 12.606 48.6661 12.0165 48.5656 11.4133C48.4742 10.8009 48.2914 10.2342 48.0172 9.71321C47.7521 9.19222 47.3728 8.77178 46.8792 8.45188C46.3948 8.13198 45.7596 7.97203 44.9735 7.97203C44.4617 7.97203 43.9772 8.05886 43.5202 8.23252C43.0632 8.39704 42.6611 8.66667 42.3138 9.04141C41.9756 9.41615 41.7059 9.90972 41.5049 10.5221C41.3129 11.1345 41.217 11.8794 41.217 12.7568L39.4346 12.0851C39.4346 10.7415 39.686 9.55783 40.1887 8.53414C40.6914 7.50131 41.4135 6.69699 42.3549 6.12117C43.2963 5.54534 44.4343 5.25743 45.7687 5.25743C46.7924 5.25743 47.6516 5.42195 48.3462 5.75099C49.0408 6.08003 49.603 6.51419 50.0325 7.05345C50.4713 7.58357 50.8049 8.16397 51.0334 8.79463C51.2619 9.4253 51.4173 10.0422 51.4995 10.6455C51.5818 11.2487 51.6229 11.7789 51.6229 12.2359V20.4619H48.7164ZM38.3104 20.4619V5.65502H40.8742V9.93257H41.217V20.4619H38.3104ZM63.1627 20.4619C62.2304 20.6447 61.3164 20.7224 60.4206 20.695C59.5249 20.6676 58.7252 20.4939 58.0214 20.174C57.3176 19.8541 56.7875 19.3514 56.431 18.6659C56.1111 18.0535 55.9374 17.432 55.91 16.8013C55.8917 16.1615 55.8826 15.4395 55.8826 14.6351V1.542H58.7617V14.498C58.7617 15.0921 58.7663 15.6085 58.7754 16.0473C58.7937 16.486 58.8897 16.8562 59.0633 17.1578C59.3924 17.7245 59.9134 18.0489 60.6263 18.1312C61.3484 18.2043 62.1938 18.1723 63.1627 18.0352V20.4619ZM53.0446 7.95832V5.65502H63.1627V7.95832H53.0446ZM71.5409 20.8732C70.0603 20.8732 68.7761 20.5396 67.6884 19.8724C66.6007 19.2052 65.7599 18.2866 65.1658 17.1167C64.5808 15.9376 64.2883 14.5803 64.2883 13.0448C64.2883 11.5001 64.5899 10.1428 65.1932 8.97286C65.7964 7.79379 66.6419 6.87979 67.7295 6.23084C68.8172 5.57276 70.0877 5.24372 71.5409 5.24372C73.0216 5.24372 74.3058 5.57733 75.3935 6.24456C76.4811 6.91178 77.322 7.83036 77.9161 9.00028C78.5102 10.1702 78.8073 11.5184 78.8073 13.0448C78.8073 14.5894 78.5057 15.9513 77.9024 17.1304C77.3083 18.3003 76.4674 19.2189 75.3798 19.8861C74.2921 20.5442 73.0125 20.8732 71.5409 20.8732ZM71.5409 18.1723C72.9577 18.1723 74.0133 17.697 74.708 16.7465C75.4118 15.7868 75.7637 14.5529 75.7637 13.0448C75.7637 11.5001 75.4072 10.2662 74.6943 9.34303C73.9905 8.41075 72.9394 7.94461 71.5409 7.94461C70.5812 7.94461 69.7906 8.16397 69.1691 8.60269C68.5476 9.03227 68.086 9.63095 67.7844 10.3987C67.4828 11.1573 67.332 12.0394 67.332 13.0448C67.332 14.5986 67.6884 15.8416 68.4013 16.7739C69.1143 17.7062 70.1608 18.1723 71.5409 18.1723ZM81.3159 20.4619V5.65502H83.866V9.24706L83.5096 8.78092C83.6924 8.30564 83.93 7.87149 84.2225 7.47846C84.515 7.0763 84.8532 6.74726 85.237 6.49134C85.6118 6.21714 86.0276 6.00691 86.4847 5.86067C86.9508 5.70529 87.4261 5.61389 87.9105 5.58647C88.3949 5.54991 88.8611 5.57276 89.3089 5.65502V8.3422C88.8245 8.21424 88.2852 8.17768 87.6911 8.23252C87.1062 8.28736 86.5669 8.47473 86.0733 8.79463C85.6072 9.09625 85.237 9.46186 84.9628 9.89144C84.6978 10.321 84.5058 10.8009 84.387 11.331C84.2682 11.852 84.2088 12.405 84.2088 12.9899V20.4619H81.3159ZM101.323 20.4619V3.42028H94.7558V0.719391H110.755V3.42028H104.188V20.4619H101.323ZM116.68 20.8732C115.199 20.8732 113.915 20.5396 112.827 19.8724C111.739 19.2052 110.899 18.2866 110.304 17.1167C109.719 15.9376 109.427 14.5803 109.427 13.0448C109.427 11.5001 109.729 10.1428 110.332 8.97286C110.935 7.79379 111.781 6.87979 112.868 6.23084C113.956 5.57276 115.226 5.24372 116.68 5.24372C118.16 5.24372 119.444 5.57733 120.532 6.24456C121.62 6.91178 122.461 7.83036 123.055 9.00028C123.649 10.1702 123.946 11.5184 123.946 13.0448C123.946 14.5894 123.644 15.9513 123.041 17.1304C122.447 18.3003 121.606 19.2189 120.518 19.8861C119.431 20.5442 118.151 20.8732 116.68 20.8732ZM116.68 18.1723C118.096 18.1723 119.152 17.697 119.847 16.7465C120.55 15.7868 120.902 14.5529 120.902 13.0448C120.902 11.5001 120.546 10.2662 119.833 9.34303C119.129 8.41075 118.078 7.94461 116.68 7.94461C115.72 7.94461 114.929 8.16397 114.308 8.60269C113.686 9.03227 113.225 9.63095 112.923 10.3987C112.621 11.1573 112.471 12.0394 112.471 13.0448C112.471 14.5986 112.827 15.8416 113.54 16.7739C114.253 17.7062 115.299 18.1723 116.68 18.1723ZM126.441 20.4619L126.455 0.719391H129.361V12.7843L135.174 5.65502H138.821L132.679 13.0585L139.452 20.4619H135.558L129.361 13.3327V20.4619H126.441ZM146.629 20.8732C145.158 20.8732 143.864 20.5533 142.749 19.9135C141.643 19.2646 140.78 18.3643 140.158 17.2126C139.546 16.0518 139.24 14.7082 139.24 13.1819C139.24 11.5641 139.541 10.1611 140.144 8.97286C140.757 7.78465 141.607 6.86608 142.695 6.21714C143.782 5.56819 145.048 5.24372 146.492 5.24372C148 5.24372 149.285 5.59561 150.345 6.2994C151.405 6.99404 152.196 7.98574 152.717 9.27448C153.247 10.5632 153.457 12.0942 153.347 13.8674H150.482V12.8254C150.464 11.1071 150.135 9.8366 149.495 9.01399C148.864 8.19139 147.9 7.78008 146.602 7.78008C145.167 7.78008 144.088 8.23252 143.366 9.13738C142.644 10.0422 142.283 11.3493 142.283 13.0585C142.283 14.6854 142.644 15.9467 143.366 16.8425C144.088 17.729 145.13 18.1723 146.492 18.1723C147.388 18.1723 148.16 17.9712 148.809 17.5691C149.467 17.1578 149.979 16.5728 150.345 15.8142L153.155 16.7054C152.58 18.0307 151.707 19.0589 150.537 19.7901C149.367 20.5122 148.064 20.8732 146.629 20.8732ZM141.351 13.8674V11.6326H151.921V13.8674H141.351ZM165.91 20.4619V13.1819C165.91 12.606 165.859 12.0165 165.759 11.4133C165.668 10.8009 165.485 10.2342 165.211 9.71321C164.945 9.19222 164.566 8.77178 164.073 8.45188C163.588 8.13198 162.953 7.97203 162.167 7.97203C161.655 7.97203 161.171 8.05886 160.714 8.23252C160.257 8.39704 159.854 8.66667 159.507 9.04141C159.169 9.41615 158.899 9.90972 158.698 10.5221C158.506 11.1345 158.41 11.8794 158.41 12.7568L156.628 12.0851C156.628 10.7415 156.879 9.55783 157.382 8.53414C157.885 7.50131 158.607 6.69699 159.548 6.12117C160.49 5.54534 161.628 5.25743 162.962 5.25743C163.986 5.25743 164.845 5.42195 165.54 5.75099C166.234 6.08003 166.796 6.51419 167.226 7.05345C167.665 7.58357 167.998 8.16397 168.227 8.79463C168.455 9.4253 168.611 10.0422 168.693 10.6455C168.775 11.2487 168.816 11.7789 168.816 12.2359V20.4619H165.91ZM155.504 20.4619V5.65502H158.068V9.93257H158.41V20.4619H155.504Z" fill="#696CFF"/>
</svg>
