<svg width="31" height="34" viewBox="0 0 31 34" fill="none" xmlns="http://www.w3.org/2000/svg">
<path d="M30.1432 24.5357C30.1432 24.9187 29.9356 25.2716 29.6007 25.4576L16.0225 33.0011C15.704 33.1781 15.3167 33.1781 14.9981 33.0011L1.41989 25.4576C1.08509 25.2716 0.877441 24.9187 0.877441 24.5357L0.877441 9.51806C0.877441 9.13505 1.08509 8.78216 1.41989 8.59615L14.9982 1.05268C15.3167 0.875721 15.704 0.875725 16.0225 1.05268L29.6007 8.59616C29.9356 8.78216 30.1432 9.13506 30.1432 9.51806V24.5357ZM14.9985 29.2784C15.3169 29.455 15.7038 29.455 16.0221 29.2784L23.4575 25.1518C24.1813 24.7501 24.1813 23.7091 23.4573 23.3075L20.9352 21.9082C20.5168 21.676 19.9998 21.7619 19.6285 22.0638C18.5057 22.9768 17.0714 23.5304 15.5103 23.5304C13.9492 23.5304 12.515 22.9768 11.3922 22.0638C11.0209 21.7619 10.5038 21.676 10.0854 21.9082L7.56329 23.3075C6.83939 23.7091 6.83932 24.7501 7.56317 25.1518L14.9985 29.2784ZM13.8844 7.1771C13.8844 6.37316 13.021 5.86485 12.318 6.25498L4.67204 10.4985C4.33701 10.6845 4.12919 11.0375 4.12919 11.4206V19.6889C4.12919 20.4931 4.99329 21.0014 5.69623 20.6107L8.48341 19.0612C8.91332 18.8222 9.11233 18.3177 9.05331 17.8294C9.02172 17.568 9.00682 17.2993 9.00682 17.0269C9.00682 14.2898 10.6983 11.939 13.1047 10.987C13.5532 10.8096 13.8844 10.3971 13.8844 9.91479V7.1771ZM12.2586 17.0269C12.2586 18.8154 13.7219 20.2786 15.5103 20.2786C17.2988 20.2786 18.7621 18.8154 18.7621 17.0269C18.7621 15.2384 17.2988 13.7751 15.5103 13.7751C13.7219 13.7751 12.2586 15.2384 12.2586 17.0269ZM18.7026 6.25498C17.9997 5.86485 17.1362 6.37317 17.1362 7.1771V9.89853C17.1362 10.3809 17.4674 10.7933 17.9159 10.9707C20.3224 11.9228 22.0138 14.2736 22.0138 17.0106C22.0138 17.2904 21.9981 17.5661 21.9647 17.8361C21.9048 18.3209 22.1039 18.8203 22.5309 19.0577L25.3244 20.6107C26.0273 21.0014 26.8914 20.4931 26.8914 19.6889V11.4206C26.8914 11.0375 26.6836 10.6845 26.3486 10.4985L18.7026 6.25498Z" fill="#696CFF"/>
</svg>
